<svg xmlns="http://www.w3.org/2000/svg" focusable="false" tabindex="-1" width="18" height="16" viewBox="0 0 18 16"><g class="svg-color--primary" fill="#37454D">
        <path d="M16 1h-1c0-.552-.448-1-1-1s-1 .448-1 1H5c0-.552-.448-1-1-1S3 .448 3 1H2C.896 1 0 1.896 0 3v11c0 1.104.896 2 2 2h14c1.104 0 2-.896 2-2V3c0-1.104-.896-2-2-2zm1 13c0 .552-.448 1-1 1H2c-.552 0-1-.448-1-1V5h16v9zm0-10H1V3c0-.552.45-1 1-1h14c.552 0 1 .448 1 1v1z"></path>
        <circle cx="13.5" cy="11.5" r="1.5"></circle>
    </g></svg>