<?xml version="1.0" encoding="utf-8"?>
<!-- Generator: Adobe Illustrator 22.0.1, SVG Export Plug-In . SVG Version: 6.00 Build 0)  -->
<svg version="1.1" id="Layer_1" focusable="false" xmlns="http://www.w3.org/2000/svg" xmlns:xlink="http://www.w3.org/1999/xlink"
	 x="0px" y="0px" viewBox="0 0 24 24" style="enable-background:new 0 0 24 24;" xml:space="preserve">
<style type="text/css">
	.st0{fill:#9AA0A5;}
</style>
<path class="st0" d="M12,2C6.5,2,2,6.5,2,12s4.5,10,10,10s10-4.5,10-10S17.5,2,12,2z M12,5c1.1,0,2,0.9,2,2s-0.9,2-2,2s-2-0.9-2-2
	S10.9,5,12,5z M10,18v-6c0-0.5,0.5-1,1-1h2c0.5,0,1,0.5,1,1v6c0,0.5-0.5,1-1,1h-2C10.5,19,10,18.5,10,18z"/>
</svg>
